<svg version="1.2" baseProfile="tiny-ps" xmlns="http://www.w3.org/2000/svg" viewBox="0 0 1024 1024" width="32" height="32">
	<title>Spottr Logo</title>
	<style>
		tspan { white-space:pre }
		.shp0 { fill: #1ed760 } 
	</style>
	<path id="Layer" class="shp0" d="M485.4 324.18C473.44 307.48 450.34 303.56 433.64 315.32C416.94 327.28 413.02 350.37 424.77 367.08C454.67 409.35 470.55 459.25 470.55 511.63C470.55 564.01 454.67 613.92 424.77 656.19C413.02 672.89 416.94 695.99 433.64 707.95C440.24 712.49 447.66 714.76 455.09 714.76C466.63 714.76 478.18 709.39 485.4 699.08C524.37 644.23 545 579.48 545 511.63C545 443.79 524.37 379.04 485.4 324.18Z" />
	<path id="Layer" class="shp0" d="M614.28 206.64C602.32 189.94 579.23 186.02 562.52 197.77C545.82 209.73 541.9 232.83 553.66 249.53C608.1 326.24 636.76 416.77 636.76 511.63C636.76 606.49 608.1 697.02 553.66 773.53C541.9 790.23 545.82 813.53 562.52 825.29C569.12 829.82 576.55 832.09 583.97 832.09C595.52 832.09 607.07 826.73 614.28 816.42C677.59 727.34 711 621.96 711 511.63C711 401.31 677.59 295.93 614.28 206.64Z" />
	<path id="Layer 1" class="shp0" d="M347.5 547C327.87 547 312 531.13 312 511.5C312 491.87 327.87 476 347.5 476C367.13 476 383 491.87 383 511.5C383 531.13 367.13 547 347.5 547Z" />
</svg>